<svg xmlns="http://www.w3.org/2000/svg" width="624.45" height="614.164" viewBox="0 0 624.45 614.164">
  <g id="undraw_Team_page" transform="translate(0)">
    <path id="Path_44" data-name="Path 44" d="M596.915,330.812h-4.27q-2.041-1.26-4.1-2.49c-.85-.53-1.71-1.04-2.57-1.56q-21.315-12.855-42.89-24.65-21.555-11.8-43.32-22.51a1.789,1.789,0,0,1-1.04-2.04.516.516,0,0,1,.07-.15c.2-.38.65-.54,1.31-.22,1.78.88,3.57,1.76,5.35,2.66q21.825,10.89,43.47,22.88t43.02,25.04c.3.18.6.37.9.55C594.205,329.152,595.555,329.982,596.915,330.812Z" transform="translate(-287.775 -142.918)" fill="#fff"/>
    <path id="Path_45" data-name="Path 45" d="M651.965,330.812h-2.64c-.6-.83-1.19-1.66-1.79-2.49q-21.149-29.31-42.29-58.62-34.62-47.985-69.22-95.97a1.7,1.7,0,0,1-.3-.58c-.2-.71.32-1.13.99-1.06a2.006,2.006,0,0,1,1.4.88q19.41,26.91,38.81,53.8,34.44,47.745,68.87,95.48c1.46,2.02,2.92,4.05,4.38,6.07C650.775,329.152,651.375,329.982,651.965,330.812Z" transform="translate(-287.775 -142.918)" fill="#fff"/>
    <path id="Path_46" data-name="Path 46" d="M710.7,315.152c-.11,4.45-.38,8.83-.74,13.17q-.1,1.245-.21,2.49h-2.77c.08-.83.16-1.66.23-2.49.55-6.27.93-12.61.95-19.12a266.652,266.652,0,0,0-5.55-53.72,334.677,334.677,0,0,0-16.57-55.75,383.486,383.486,0,0,0-26.91-55.1,1.476,1.476,0,0,1-.25-.98c.11-.79,1.16-1.03,1.95-.28a2.292,2.292,0,0,1,.4.5q1.935,3.285,3.8,6.59a383.225,383.225,0,0,1,25.77,55.3,333.081,333.081,0,0,1,15.47,55.84,263.076,263.076,0,0,1,4.43,53.55Z" transform="translate(-287.775 -142.918)" fill="#fff"/>
    <path id="Path_47" data-name="Path 47" d="M903.495,328.322h-607a8.728,8.728,0,0,0-8.72,8.72v411.32a8.728,8.728,0,0,0,8.72,8.72h607a8.713,8.713,0,0,0,6.631-3.06,2.035,2.035,0,0,0,.19-.24,8.165,8.165,0,0,0,1.25-2.11,8.507,8.507,0,0,0,.66-3.31V337.042A8.729,8.729,0,0,0,903.495,328.322Zm6.24,420.04a6.174,6.174,0,0,1-1.03,3.42,6.447,6.447,0,0,1-2.36,2.12,6.184,6.184,0,0,1-2.85.69h-607a6.238,6.238,0,0,1-6.23-6.23V337.042a6.238,6.238,0,0,1,6.23-6.23h607a6.24,6.24,0,0,1,6.24,6.231Z" transform="translate(-287.775 -142.918)" fill="#3f3d56"/>
    <rect id="Rectangle_1" data-name="Rectangle 1" width="621.957" height="2.493" transform="translate(1.243 220.353)" fill="#3f3d56"/>
    <circle id="Ellipse_6" data-name="Ellipse 6" cx="7.478" cy="7.478" r="7.478" transform="translate(14.953 196.622)" fill="#3f3d56"/>
    <circle id="Ellipse_7" data-name="Ellipse 7" cx="7.478" cy="7.478" r="7.478" transform="translate(36.454 196.622)" fill="#3f3d56"/>
    <circle id="Ellipse_8" data-name="Ellipse 8" cx="7.478" cy="7.478" r="7.478" transform="translate(57.954 196.622)" fill="#3f3d56"/>
    <path id="Path_48" data-name="Path 48" d="M564.752,575.192c-7.479-4.869-11.2-16.183-9.367-26.531s8.734-19.261,17.008-23.1a26.65,26.65,0,0,1,25.228,1.793c7.587,4.639,18.317,7.18,21.92,16.462,2.769,7.133-.743,21.617-4.469,28.546-3.221,5.988-9.341,8.727-15.091,9.917a45.34,45.34,0,0,1-36.669-8.461Z" transform="translate(-287.775 -142.918)" fill="#2f2e41"/>
    <path id="Path_49" data-name="Path 49" d="M273.076,487.234l-5.98,10.31-.79,1.36-1.15,2h-17.63l1.19-2,3.08-5.19,7.18-12.12,8.13,3.25Z" fill="#ffb8b8"/>
    <path id="Path_50" data-name="Path 50" d="M533.981,643.822l-3.22-2-.4-.25,20.21-36.83a13.731,13.731,0,0,1,8.25-6.62,13.574,13.574,0,0,1,6.78-.25,13.35,13.35,0,0,1,3.74,1.4,13.078,13.078,0,0,1,1.39.88,13.348,13.348,0,0,1,4.1,4.62,13.817,13.817,0,0,1-.42,13.95l-7.79,12.45-6.66,10.65-1.25,2h-24.73Z" transform="translate(-287.775 -142.918)" fill="#2f2e41"/>
    <circle id="Ellipse_9" data-name="Ellipse 9" cx="24.561" cy="24.561" r="24.561" transform="translate(273.569 396.223)" fill="#ffb8b8"/>
    <path id="Path_51" data-name="Path 51" d="M610.561,643.822h-55.21l.25-.71q-.21-.645-.39-1.29c-.13-.45-.24-.91-.34-1.36a30.194,30.194,0,0,1,.01-12.7c3.05-14.98,15.22-27.15,15.22-27.15.21-.16.42-.31.63-.46a27.786,27.786,0,0,1,5.85-3.28c9.04-3.75,18.52-2.24,24.89-.3a49.677,49.677,0,0,1,6.49,2.47c.74.35,1.14.57,1.14.57l.63,19.21.76,23Z" transform="translate(-287.775 -142.918)" fill="#54759a"/>
    <path id="Path_52" data-name="Path 52" d="M636.1,641.822l-4.22-21.46-4.26-21.64a4.519,4.519,0,0,0-3.65-3.57l-8.92-1.54-8.3-1.43a4.459,4.459,0,0,0-4.31,1.65,4.41,4.41,0,0,0-.97,2.74,4.52,4.52,0,0,0,.37,1.79c4.33,10.1,4.41,26.09,3.31,43.46-.05.66-.09,1.33-.14,2H636.5Z" transform="translate(-287.775 -142.918)" fill="#2f2e41"/>
    <path id="Path_53" data-name="Path 53" d="M576.581,596.872a4.527,4.527,0,0,0-7.15-2.48l-3.83,3.48-15.68,14.28a4.345,4.345,0,0,0-1.12,1.59c-1.77,4.23-5.22,12.58-9.23,22.89q-.975,2.52-2.01,5.19c-.24.66-.5,1.33-.76,2h25.84c.21-.67.42-1.34.63-2,1.15-3.63,2.27-7.19,3.35-10.65,3.16-10.05,6.01-19.18,8.21-26.4q.915-3,1.67-5.54a4.528,4.528,0,0,0,.08-2.36Z" transform="translate(-287.775 -142.918)" fill="#2f2e41"/>
    <path id="Path_54" data-name="Path 54" d="M354.126,500.9h1.67l-.23-.56-.61-1.44-9.41-22.33-1.44.87-11.56,6.99,5.93,14.47.82,2h14.83Z" fill="#ffb8b8"/>
    <path id="Path_55" data-name="Path 55" d="M632.361,601.782a13.821,13.821,0,0,0-17.31-8.17,12.4,12.4,0,0,0-1.27.5,13.647,13.647,0,0,0-5.82,4.93,13.2,13.2,0,0,0-1.43,2.77,13.742,13.742,0,0,0,.31,10.57l2.89,6.44,10.34,23,.9,2H641.9l1.44-.56,3.74-1.44.52-.2Z" transform="translate(-287.775 -142.918)" fill="#2f2e41"/>
    <path id="Path_56" data-name="Path 56" d="M605.2,535.494a4.063,4.063,0,0,0,4.622-1.754,5.851,5.851,0,0,0,.338-5.143,10.736,10.736,0,0,0-3.2-4.215,12.406,12.406,0,0,0-5.618-2.908,7.461,7.461,0,0,0-6.053,1.331,5.377,5.377,0,0,0-1.826,5.722c.636,1.844,2.359,3.08,4.079,4a27.1,27.1,0,0,0,11.038,3.138Z" transform="translate(-287.775 -142.918)" fill="#2f2e41"/>
    <path id="Path_57" data-name="Path 57" d="M609.973,562.969c-3.949.544-3.442-1.465-5.023-5.124s-3.7-8-7.667-8.373c-3.252-.3-5.932,2.3-8.567,4.227-4.7,3.441-11.025,5.126-16.469,3.061s-9.227-8.553-7.161-14a11.942,11.942,0,0,1,6.906-6.529,24.029,24.029,0,0,1,9.623-1.337,49.646,49.646,0,0,1,20.864,5.341c4.472,2.272,8.826,5.523,10.522,10.244s2.813,11.355-2.038,12.632Z" transform="translate(-287.775 -142.918)" fill="#2f2e41"/>
    <path id="Path_58" data-name="Path 58" d="M603.177,522.509c-1.952-3.4-.341-8.059,2.853-10.329s7.477-2.493,11.288-1.582a22.166,22.166,0,0,1,15.9,15.411c1.617,5.941.656,12.322,2.025,18.326a24.049,24.049,0,0,0,30.222,17.725c4.1-1.2,8.271-4.133,8.674-8.389a23.519,23.519,0,0,1-13.928,23.549c-5.285,2.2-11.18,2.348-16.905,2.2-3.731-.1-7.546-.32-10.988-1.764a19.666,19.666,0,0,1-10.333-11.2,31.129,31.129,0,0,1-1.375-15.435c.563-4.028,1.684-7.977,2-12.032s-.281-8.385-2.781-11.594-7.276-4.847-10.83-2.87c-1.429.795-2.581,2.093-4.133,2.605s-3.752-.388-3.611-2.017Z" transform="translate(-287.775 -142.918)" fill="#2f2e41"/>
    <path id="Path_59" data-name="Path 59" d="M770.781,643.822l.19-2,5.64-58.68a35.919,35.919,0,0,1,5.93-3.77c11.61-5.85,22.81-3.05,28.87-.63a31.587,31.587,0,0,1,4.64,2.27l3.3,60.81.11,2Z" transform="translate(-287.775 -142.918)" fill="#54759a"/>
    <circle id="Ellipse_10" data-name="Ellipse 10" cx="24.561" cy="24.561" r="24.561" transform="translate(484.858 375.484)" fill="#ffb8b8"/>
    <path id="Path_60" data-name="Path 60" d="M817.122,557.94a13.37,13.37,0,0,0-10.145-22.564c-3.4.114-6.6,1.5-9.838,2.523a32.534,32.534,0,0,1-15.285,1.376,20.41,20.41,0,0,1-13.016-7.686c-3.039-4.177-3.986-9.969-1.84-14.667,2.478-5.423,8.268-8.412,13.714-10.84a25.064,25.064,0,0,1,6.962-2.288,8.929,8.929,0,0,1,6.926,1.746c1.53,1.316,2.427,3.295,4.093,4.436,1.875,1.284,4.31,1.25,6.571,1.477a25.2,25.2,0,0,1,12.208,45.54Z" transform="translate(-287.775 -142.918)" fill="#2f2e41"/>
    <path id="Path_61" data-name="Path 61" d="M786.2,589.532l-3.66-10.16-.229-.633a2.1,2.1,0,0,0-3.146-1.037l-4.155,2.77s-26.65,0-28.79,15.99c-.03.25-.07.53-.1.83a.156.156,0,0,1-.01.04c-.27,1.05-5.3,20.49-9.62,44.49-.12.66-.24,1.33-.36,2h57.91C795.926,619.713,794.871,597.3,786.2,589.532Z" transform="translate(-287.775 -142.918)" fill="#2f2e41"/>
    <path id="Path_62" data-name="Path 62" d="M855.281,641.822c-3.16-24.62-7.68-44.53-7.68-44.53-.04-.3-.08-.58-.11-.83-2.13-15.99-28.78-15.99-28.78-15.99l-4.153-2.769a2.1,2.1,0,0,0-3.148,1.039l-3.89,10.79c-8.67,7.765-9.725,30.181-7.84,54.289h55.85C855.451,643.152,855.361,642.482,855.281,641.822Z" transform="translate(-287.775 -142.918)" fill="#2f2e41"/>
    <path id="Path_63" data-name="Path 63" d="M386.2,585.762l-5.94,56.06-.21,2h-16.07c.19-.65.38-1.32.58-2,4.56-15.64,10.77-38.47,10.1-44.52-1.05-9.44,6.3-12.59,6.3-12.59l.46.09Z" transform="translate(-287.775 -142.918)" fill="#54759a"/>
    <circle id="Ellipse_11" data-name="Ellipse 11" cx="24.561" cy="24.561" r="24.561" transform="translate(99.782 376.418)" fill="#a0616a"/>
    <path id="Path_64" data-name="Path 64" d="M443.911,631.922a40.269,40.269,0,0,0-3.03,7.16c-.29.88-.57,1.8-.83,2.74-.19.65-.36,1.32-.53,2h-64.78c.09-.66.17-1.33.26-2,3.31-26.15,5.99-52.69,6.42-57.02.04-.41.06-.62.06-.62,38.82-20.46,67.15,6.3,67.15,6.3s.04.19.1.56C449.351,594.782,452.511,616.622,443.911,631.922Z" transform="translate(-287.775 -142.918)" fill="#54759a"/>
    <path id="Path_65" data-name="Path 65" d="M440.881,639.082l-4.32-9.26,1.05-36.72,11.12-2.06.39-.07a29.445,29.445,0,0,1,12.62,14.72c2.16,5.4,6.27,21.64,9.74,36.13.16.67.32,1.34.48,2h-28.87l-.93-2Z" transform="translate(-287.775 -142.918)" fill="#54759a"/>
    <path id="Path_66" data-name="Path 66" d="M480.391,478.822H338.371a11.5,11.5,0,0,0-11.49,11.49v142.02a11.5,11.5,0,0,0,11.49,11.49h142.02a11.5,11.5,0,0,0,11.49-11.49V490.312a11.5,11.5,0,0,0-11.49-11.49Zm9.49,153.51a9.5,9.5,0,0,1-9.49,9.49H338.371a9.5,9.5,0,0,1-9.49-9.49V490.312a9.5,9.5,0,0,1,9.49-9.49h142.02a9.5,9.5,0,0,1,9.49,9.49Zm-109.62,9.49-.21,2h59.47c.17-.68.34-1.35.53-2Z" transform="translate(-287.775 -142.918)" fill="#3f3d56"/>
    <path id="Path_67" data-name="Path 67" d="M671,478.822H528.981a11.5,11.5,0,0,0-11.49,11.49v142.02a11.5,11.5,0,0,0,11.49,11.49H671a11.5,11.5,0,0,0,11.49-11.49V490.312A11.5,11.5,0,0,0,671,478.822Zm9.49,153.51a9.5,9.5,0,0,1-9.49,9.49H528.981a9.5,9.5,0,0,1-9.49-9.49V490.312a9.5,9.5,0,0,1,9.49-9.49H671a9.5,9.5,0,0,1,9.49,9.49Zm-125.28,9.49q.18.645.39,1.29l-.25.71h49.66c.05-.67.09-1.34.14-2Z" transform="translate(-287.775 -142.918)" fill="#3f3d56"/>
    <path id="Path_68" data-name="Path 68" d="M861.621,478.822H719.6a11.5,11.5,0,0,0-11.49,11.49v142.02a11.5,11.5,0,0,0,11.49,11.49h142.02a11.5,11.5,0,0,0,11.49-11.49V490.312a11.5,11.5,0,0,0-11.49-11.49Zm9.49,153.51a9.5,9.5,0,0,1-9.49,9.49H719.6a9.5,9.5,0,0,1-9.49-9.49V490.312a9.5,9.5,0,0,1,9.49-9.49h142.02a9.5,9.5,0,0,1,9.49,9.49Zm-76.92,9.49c-.05.66-.1,1.33-.15,2h43.09c.08-.66.17-1.33.25-2Z" transform="translate(-287.775 -142.918)" fill="#3f3d56"/>
    <path id="Path_69" data-name="Path 69" d="M765,701.822H435a8,8,0,0,1,0-16H765a8,8,0,0,1,0,16Z" transform="translate(-287.775 -142.918)" fill="#ccc"/>
    <path id="Path_70" data-name="Path 70" d="M672.5,436.822h-145a8,8,0,0,1,0-16h145a8,8,0,0,1,0,16Z" transform="translate(-287.775 -142.918)" fill="#54759a"/>
    <path id="Path_71" data-name="Path 71" d="M423.866,565.3a4.853,4.853,0,0,0,6.346.407c5.789-4.291,10.87-9.632,13.878-16.147,3.446-7.465,3.831-16.625-.324-23.72-3.512-6-9.714-9.868-15.9-13.046a28.274,28.274,0,0,0-7.674-2.958,10.937,10.937,0,0,0-7.952,1.283,6.868,6.868,0,0,0-3.1,7.091,25.847,25.847,0,0,0-11.033-7.406,14.267,14.267,0,0,0-8.425-.611c-3.923,1.113-6.786,4.6-8.353,8.362a16.724,16.724,0,0,0-1.262,9.125,11.147,11.147,0,0,0,4.871,7.635c3.243,2.006,7.381,1.862,11.105,1.042s7.33-2.246,11.126-2.606,8.024.586,10.335,3.62c1.627,2.137,2.045,4.928,2.41,7.589l1.9,13.839a16.88,16.88,0,0,0,1.51,5.783,3.332,3.332,0,0,0,.538.718Z" transform="translate(-287.775 -142.918)" fill="#2f2e41"/>
  </g>
</svg>
