<svg xmlns="http://www.w3.org/2000/svg" width="559.174" height="582.5" viewBox="0 0 559.174 582.5">
  <g id="undraw_Choose" transform="translate(0 0)">
    <path id="Path_37" data-name="Path 37" d="M801.066,681.954v2.02c-.12,23.48-4.08,41.8-11.85,54.7-.11.19-.23.37-.34.56l-.87-.53-.83-.52c8.62-13.93,11.67-33.62,11.78-54.1.01-.66.02-1.33.01-2-.03-8.67-.56-17.44-1.41-25.96-.06-.66-.13-1.33-.2-2-1.18-11.24-2.88-21.98-4.62-31.31-.12-.66-.25-1.32-.38-1.97-3.01-15.78-6.08-27.21-6.78-29.74-.08-.31-.13-.48-.14-.52l.95-.27.01-.01.96-.27c.01.04.18.61.46,1.67,1.07,3.96,3.85,14.71,6.58,28.89.12.64.25,1.3.37,1.96,1.42,7.57,2.81,16.03,3.91,24.91q.42,3.345.75,6.6c.08.67.15,1.34.21,2Q801.016,669.879,801.066,681.954Z" transform="translate(-320.413 -158.75)" fill="#fff"/>
    <path id="Path_38" data-name="Path 38" d="M794.4,620.594c-.67.09-1.35.18-2.04.25a55.172,55.172,0,0,1-5.64.29,53.663,53.663,0,0,1-23.2-5.24c-.42.53-.84,1.06-1.27,1.6a55.651,55.651,0,0,0,24.47,5.64,57.092,57.092,0,0,0,6.02-.32c.68-.07,1.36-.16,2.03-.26a55.182,55.182,0,0,0,15.95-4.83q-.645-.825-1.26-1.62a53.481,53.481,0,0,1-15.06,4.49Z" transform="translate(-320.413 -158.75)" fill="#fff"/>
    <path id="Path_39" data-name="Path 39" d="M799.426,654.064q-1.035.06-2.07.06c-.21.01-.43.01-.64.01A53.949,53.949,0,0,1,752.436,631c-.4.591-.8,1.181-1.19,1.781a55.952,55.952,0,0,0,45.47,23.35c.28,0,.56,0,.84-.01.7-.01,1.39-.03,2.08-.06a55.656,55.656,0,0,0,29.65-10.4c-.32-.59-.64-1.18-.97-1.77a53.577,53.577,0,0,1-28.89,10.17Z" transform="translate(-320.413 -158.75)" fill="#fff"/>
    <path id="Path_40" data-name="Path 40" d="M801.066,681.954c-.7.06-1.4.1-2.1.13-.75.03-1.5.05-2.25.05a54.094,54.094,0,0,1-51.86-38.92c-.45.81-.9,1.61-1.33,2.42a56.075,56.075,0,0,0,53.19,38.5c.75,0,1.5-.01,2.24-.05.71-.02,1.41-.06,2.11-.11a55.912,55.912,0,0,0,36.9-18.01c-.21-.74-.45-1.47-.69-2.21a53.92,53.92,0,0,1-36.21,18.2Z" transform="translate(-320.413 -158.75)" fill="#fff"/>
    <path id="Rectangle_1_-_Outline" data-name="Rectangle 1 - Outline" d="M741.16,284.7,462.571,249.181a18.088,18.088,0,0,0-2.263-.147,17.261,17.261,0,0,0-2.231.141,17.066,17.066,0,0,0-2.19.429,17.5,17.5,0,0,0-2.14.722,18.23,18.23,0,0,0-1.992.963,18.953,18.953,0,0,0-1.889,1.2,20.233,20.233,0,0,0-1.777,1.451,22.08,22.08,0,0,0-1.659,1.685,23.764,23.764,0,0,0-1.512,1.9q-.714,1-1.34,2.086t-1.162,2.261q-.536,1.174-.977,2.427-.457,1.3-.8,2.648t-.575,2.753q-.226,1.4-.347,2.843t-.12,2.924q0,1.478.12,2.947t.347,2.913q.234,1.451.578,2.872t.8,2.811q.442,1.342.977,2.623t1.162,2.494q.626,1.212,1.34,2.355t1.512,2.208q.8,1.061,1.659,2.023t1.777,1.806q.917.849,1.889,1.585a23.628,23.628,0,0,0,1.992,1.358,21.763,21.763,0,0,0,2.14,1.147,20.078,20.078,0,0,0,2.19.868,18.981,18.981,0,0,0,2.231.589,18.473,18.473,0,0,0,2.263.307l278.588,20.378a7.056,7.056,0,0,0,2.407-.241,7.55,7.55,0,0,0,1.162-.429,8.6,8.6,0,0,0,1.128-.632,10.041,10.041,0,0,0,1.042-.794,11.678,11.678,0,0,0,.982-.963,13.851,13.851,0,0,0,.918-1.127q.444-.6.854-1.288t.774-1.426q.365-.743.682-1.543t.59-1.654q.271-.855.494-1.76.235-.937.4-1.907t.29-1.969q.117-1,.175-2.025t.058-2.074q0-1.047-.058-2.085t-.175-2.06q-.117-1.022-.29-2.027t-.4-1.989q-.223-.951-.494-1.859t-.59-1.765q-.321-.869-.682-1.685t-.774-1.582q-.41-.767-.853-1.459t-.918-1.312q-.475-.62-.982-1.16a13.5,13.5,0,0,0-1.042-1,11.332,11.332,0,0,0-1.128-.858,9.512,9.512,0,0,0-1.162-.662,8.275,8.275,0,0,0-1.192-.462,7.594,7.594,0,0,0-1.218-.259" transform="translate(-320.413 -158.75)" fill="#54759a"/>
    <path id="Rectangle_3_-_Outline" data-name="Rectangle 3 - Outline" d="M741.16,364.8l-278.589-6.673a17.91,17.91,0,0,0-4.494.459,18.338,18.338,0,0,0-2.19.656,19.412,19.412,0,0,0-2.14.939,20.727,20.727,0,0,0-1.992,1.165,21.915,21.915,0,0,0-1.889,1.4,23.585,23.585,0,0,0-1.777,1.635q-.861.876-1.659,1.863t-1.512,2.062q-.714,1.073-1.34,2.225t-1.162,2.381q-.536,1.229-.977,2.528-.457,1.345-.8,2.733t-.575,2.812q-.226,1.424-.347,2.881t-.12,2.936q0,1.479.12,2.935t.347,2.878q.234,1.416.578,2.8t.8,2.728q.442,1.3.977,2.528t1.162,2.374q.626,1.148,1.34,2.216t1.512,2.046q.8.982,1.659,1.853a23.359,23.359,0,0,0,1.777,1.624,21.7,21.7,0,0,0,1.889,1.39,20.546,20.546,0,0,0,1.992,1.152,19.282,19.282,0,0,0,2.14.926,18.255,18.255,0,0,0,2.19.642,17.822,17.822,0,0,0,2.231.361,18,18,0,0,0,2.263.073l278.586-8.476a7.252,7.252,0,0,0,1.218-.141,7.574,7.574,0,0,0,1.192-.345,8.437,8.437,0,0,0,1.162-.549,9.876,9.876,0,0,0,1.128-.749,11.675,11.675,0,0,0,1.042-.9,13.633,13.633,0,0,0,.982-1.064q.474-.568.918-1.222t.853-1.376q.409-.727.774-1.507t.682-1.613q.319-.846.59-1.723t.494-1.806q.235-.951.4-1.939t.29-2q.117-1.015.175-2.046t.058-2.08q0-1.039-.058-2.075t-.175-2.046q-.117-1.014-.29-2t-.4-1.946q-.224-.929-.495-1.81t-.589-1.712q-.317-.831-.681-1.609t-.774-1.5q-.41-.723-.853-1.372t-.918-1.217a13.511,13.511,0,0,0-.982-1.058,11.572,11.572,0,0,0-1.042-.9,9.779,9.779,0,0,0-1.128-.742,8.366,8.366,0,0,0-1.163-.539,7.535,7.535,0,0,0-1.192-.338,7.234,7.234,0,0,0-1.218-.132" transform="translate(-320.413 -158.75)" fill="#e4e4e4"/>
    <path id="Rectangle_4_-_Outline" data-name="Rectangle 4 - Outline" d="M741.16,439.9,462.571,460.278a18.477,18.477,0,0,0-2.263.307,18.966,18.966,0,0,0-2.231.589,20.072,20.072,0,0,0-2.19.868,21.78,21.78,0,0,0-2.14,1.147,23.633,23.633,0,0,0-1.992,1.358q-.973.743-1.889,1.585t-1.777,1.806q-.861.959-1.659,2.023t-1.512,2.21q-.714,1.142-1.34,2.355t-1.162,2.494q-.536,1.281-.977,2.623-.457,1.387-.8,2.811t-.575,2.869q-.226,1.447-.347,2.914t-.12,2.947q0,1.479.12,2.924t.347,2.844q.234,1.4.578,2.754t.8,2.648q.442,1.254.977,2.427t1.162,2.261q.626,1.087,1.34,2.086a23.778,23.778,0,0,0,1.512,1.9,22.073,22.073,0,0,0,1.659,1.685,20.233,20.233,0,0,0,1.777,1.45,18.957,18.957,0,0,0,1.889,1.2,18.225,18.225,0,0,0,1.992.963,17.492,17.492,0,0,0,2.14.722,17.057,17.057,0,0,0,2.19.429,17.271,17.271,0,0,0,2.23.141,18.09,18.09,0,0,0,2.263-.147L741.16,481.97a7.6,7.6,0,0,0,1.218-.259,8.273,8.273,0,0,0,1.192-.462,9.506,9.506,0,0,0,1.162-.662,11.323,11.323,0,0,0,1.128-.858,13.494,13.494,0,0,0,1.043-1q.5-.542.982-1.16t.918-1.312q.444-.693.853-1.459t.774-1.582q.365-.821.682-1.685t.59-1.776q.271-.908.494-1.859.235-.985.4-1.99t.29-2.027q.117-1.022.175-2.06t.058-2.086q0-1.042-.059-2.068t-.175-2.025q-.116-1-.289-1.973t-.4-1.907q-.223-.906-.494-1.76t-.589-1.654q-.321-.8-.683-1.543t-.778-1.423q-.411-.686-.853-1.288a13.839,13.839,0,0,0-.918-1.127A11.682,11.682,0,0,0,746.9,442a10.025,10.025,0,0,0-1.042-.795,8.594,8.594,0,0,0-1.128-.632,7.555,7.555,0,0,0-1.162-.429,7.056,7.056,0,0,0-2.407-.241" transform="translate(-320.413 -158.75)" fill="#e4e4e4"/>
    <path id="Path_5" data-name="Path 5" d="M589.314,443.636A13.972,13.972,0,0,0,614.6,432.2l53.993-110.925L642.749,305.6l-46.63,117.825q-.267.1-.526.218t-.516.238q-.257.124-.511.261t-.5.288a13.989,13.989,0,0,0-4.75,19.2Z" transform="translate(-320.413 -158.75)" fill="#9e616a"/>
    <path id="Path_8" data-name="Path 8" d="M658.287,364.045l-38.357-9.831s1.252-2.831,3.288-7.521,4.879-11.23,8.078-18.656,6.748-15.722,10.215-23.923,6.838-16.3,9.678-23.327,6.065-11.23,9.308-13.587a12.8,12.8,0,0,1,9.4-2.5,18.177,18.177,0,0,1,7.277,2.77,19.819,19.819,0,0,1,2.921,2.217l8.893,16.173Z" transform="translate(-320.413 -158.75)" fill="#ccc"/>
    <path id="Ellipse_3_-_Outline" data-name="Ellipse 3 - Outline" d="M351.315,355.26a24.918,24.918,0,0,0-2.769.361,25.331,25.331,0,0,0-2.729.669,26.354,26.354,0,0,0-2.68.98,27.959,27.959,0,0,0-2.621,1.288q-1.248.7-2.44,1.526t-2.315,1.772q-1.122.945-2.178,2.015t-2.034,2.257q-.979,1.187-1.855,2.459t-1.644,2.622q-.761,1.352-1.423,2.777t-1.2,2.917q-.565,1.547-.988,3.126t-.707,3.185q-.284,1.606-.426,3.233t-.142,3.268q0,1.641.142,3.239t.426,3.148q.283,1.549.707,3.043t.985,2.926q.546,1.383,1.2,2.676a28.575,28.575,0,0,0,1.425,2.489,27.3,27.3,0,0,0,1.644,2.287,26.5,26.5,0,0,0,1.856,2.091,25.416,25.416,0,0,0,2.034,1.849,24.071,24.071,0,0,0,2.179,1.581,23.192,23.192,0,0,0,4.755,2.34,22.744,22.744,0,0,0,5.3,1.2,23.283,23.283,0,0,0,2.729.12,24.476,24.476,0,0,0,2.769-.2,25.356,25.356,0,0,0,2.754-.507,25.868,25.868,0,0,0,2.69-.808,26.947,26.947,0,0,0,2.618-1.1,28.593,28.593,0,0,0,2.538-1.394q1.2-.749,2.338-1.606t2.2-1.827q1.066-.97,2.06-2.046t1.909-2.258q.922-1.181,1.736-2.433t1.524-2.57q.71-1.318,1.314-2.7t1.1-2.817q.515-1.488.9-3t.645-3.048q.258-1.536.388-3.088t.13-3.116q0-1.565-.13-3.091t-.388-3.009q-.258-1.481-.645-2.918t-.9-2.82q-.5-1.339-1.1-2.6t-1.32-2.434a27.3,27.3,0,0,0-3.254-4.349,25.779,25.779,0,0,0-1.9-1.877,24.4,24.4,0,0,0-2.06-1.633,23.559,23.559,0,0,0-2.2-1.385,23.294,23.294,0,0,0-2.342-1.132,22.722,22.722,0,0,0-5.154-1.463,23.075,23.075,0,0,0-2.69-.268,24.144,24.144,0,0,0-2.754.046" transform="translate(-320.413 -158.75)" fill="#e4e4e4"/>
    <path id="Ellipse_3_-_Outline-2" data-name="Ellipse 3 - Outline" d="M351.315,468.413a24.926,24.926,0,0,0-2.769.361,25.354,25.354,0,0,0-2.729.669,26.347,26.347,0,0,0-2.68.98,27.967,27.967,0,0,0-2.621,1.288q-1.248.7-2.44,1.526t-2.315,1.772q-1.122.945-2.178,2.015t-2.034,2.257q-.979,1.187-1.855,2.459t-1.644,2.622q-.761,1.352-1.423,2.777t-1.2,2.917q-.565,1.547-.988,3.126t-.707,3.185q-.284,1.606-.426,3.233t-.142,3.268q0,1.641.142,3.239t.426,3.148q.283,1.549.707,3.043t.985,2.926q.546,1.383,1.2,2.676a28.576,28.576,0,0,0,1.425,2.489,27.3,27.3,0,0,0,1.644,2.287,26.512,26.512,0,0,0,1.856,2.091,25.422,25.422,0,0,0,2.034,1.849,24.062,24.062,0,0,0,2.179,1.581,23.2,23.2,0,0,0,4.755,2.34,22.743,22.743,0,0,0,5.3,1.2,23.283,23.283,0,0,0,2.729.12,24.505,24.505,0,0,0,2.769-.2,25.381,25.381,0,0,0,2.754-.507,25.879,25.879,0,0,0,2.69-.808,26.947,26.947,0,0,0,2.618-1.1,28.613,28.613,0,0,0,2.538-1.394q1.2-.749,2.338-1.606t2.2-1.827q1.066-.97,2.06-2.046t1.909-2.258q.922-1.181,1.736-2.433t1.524-2.57q.71-1.318,1.314-2.7t1.1-2.817q.515-1.488.9-3t.645-3.048q.258-1.536.388-3.088t.13-3.117q0-1.565-.13-3.091t-.388-3.009q-.258-1.481-.645-2.918t-.9-2.82q-.5-1.339-1.1-2.6t-1.32-2.434a27.3,27.3,0,0,0-3.254-4.349,25.784,25.784,0,0,0-1.9-1.877,24.412,24.412,0,0,0-2.06-1.634,23.565,23.565,0,0,0-2.2-1.385,23.294,23.294,0,0,0-2.342-1.132,22.719,22.719,0,0,0-5.154-1.463,23.063,23.063,0,0,0-2.69-.268,24.143,24.143,0,0,0-2.754.046" transform="translate(-320.413 -158.75)" fill="#e4e4e4"/>
    <path id="Ellipse_2_-_Outline" data-name="Ellipse 2 - Outline" d="M351.32,232.68a24.339,24.339,0,0,0-2.769.09,23.984,23.984,0,0,0-2.729.4,24.237,24.237,0,0,0-2.68.722,25.106,25.106,0,0,0-2.621,1.034,26.087,26.087,0,0,0-2.44,1.284,26.785,26.785,0,0,0-2.315,1.548,27.969,27.969,0,0,0-2.179,1.806q-1.061.974-2.038,2.064t-1.855,2.28q-.876,1.188-1.644,2.463-.764,1.292-1.426,2.647t-1.2,2.8q-.561,1.489-.985,3.027t-.707,3.117q-.284,1.583-.426,3.192t-.142,3.25q0,1.638.142,3.25t.426,3.189q.283,1.577.707,3.112t.985,3.021q.546,1.436,1.2,2.793t1.43,2.623q.768,1.271,1.644,2.452t1.855,2.268q.98,1.083,2.034,2.046a27.72,27.72,0,0,0,2.168,1.8,26.531,26.531,0,0,0,2.315,1.532,25.879,25.879,0,0,0,2.44,1.269,24.943,24.943,0,0,0,2.621,1.017,23.981,23.981,0,0,0,5.408,1.083,24.491,24.491,0,0,0,5.522-.167,24.157,24.157,0,0,0,2.69-.546,24.5,24.5,0,0,0,2.618-.85,25.454,25.454,0,0,0,2.538-1.147,26.491,26.491,0,0,0,2.343-1.373,27.225,27.225,0,0,0,2.2-1.614q1.066-.867,2.06-1.847t1.909-2.073q.922-1.093,1.736-2.265t1.524-2.422q.713-1.249,1.314-2.57t1.1-2.7q.515-1.437.9-2.913t.645-2.985q.258-1.516.388-3.055t.13-3.1q0-1.564-.13-3.1t-.388-3.047q-.258-1.508-.645-2.983t-.9-2.908q-.5-1.386-1.1-2.7t-1.32-2.565q-.71-1.237-1.524-2.408t-1.73-2.253q-.91-1.082-1.9-2.057t-2.06-1.833a26.967,26.967,0,0,0-2.2-1.6,26.263,26.263,0,0,0-2.342-1.359,25.267,25.267,0,0,0-2.538-1.131,24.363,24.363,0,0,0-2.618-.833,24.062,24.062,0,0,0-2.69-.53,24.37,24.37,0,0,0-2.754-.221m0-3.012a26.748,26.748,0,0,1,11.6,3,30.441,30.441,0,0,1,9.3,7.515,35.43,35.43,0,0,1,6.187,10.864,39.624,39.624,0,0,1,0,26.337,35.726,35.726,0,0,1-6.187,10.9,30.728,30.728,0,0,1-9.3,7.57,26.873,26.873,0,0,1-11.6,3.078,26.519,26.519,0,0,1-11.835-2.359,29.925,29.925,0,0,1-9.845-7.26,35.052,35.052,0,0,1-6.731-11.115,39.586,39.586,0,0,1,0-27.622,35.35,35.35,0,0,1,6.731-11.159,30.2,30.2,0,0,1,9.845-7.324,26.617,26.617,0,0,1,11.842-2.435Z" transform="translate(-320.413 -158.75)" fill="#54759a"/>
    <path id="Path_1" data-name="Path 1" d="M351.317,272.824l-9.482-19.753,2.251-1.466,7.81,16.228,32.793-38.544,1.985,2.115Z" transform="translate(-320.413 -158.75)" fill="#54759a"/>
    <g id="Group_1" data-name="Group 1">
      <path id="Path_1-2" data-name="Path 1-2" d="M696.4,662.811l-23.473-.091,7.569,61.335,15.9.079Z" transform="translate(-320.413 -158.75)" fill="#9e616a"/>
      <path id="Path_2" data-name="Path 2" d="M700.458,739.567,649.2,739.3v-.648a20.1,20.1,0,0,1,.383-3.918,19.6,19.6,0,0,1,2.955-7.12,20.123,20.123,0,0,1,5.543-5.516,19.609,19.609,0,0,1,7.135-2.924,20.106,20.106,0,0,1,3.921-.361h0l31.317.154Z" transform="translate(-320.413 -158.75)" fill="#2f2e41"/>
    </g>
    <g id="Group_2" data-name="Group 2">
      <path id="Path_3" data-name="Path 3" d="M621.245,662.519l-23.406-.091,7.545,61.252,15.861.079Z" transform="translate(-320.413 -158.75)" fill="#9e616a"/>
      <path id="Path_4" data-name="Path 4" d="M625.289,739.168l-51.118-.268v-.648a20.116,20.116,0,0,1,.383-3.912,19.591,19.591,0,0,1,2.947-7.111,20.067,20.067,0,0,1,5.53-5.511,19.538,19.538,0,0,1,7.117-2.917,20.032,20.032,0,0,1,3.911-.361h0l31.231.153Z" transform="translate(-320.413 -158.75)" fill="#2f2e41"/>
    </g>
    <path id="Path_6" data-name="Path 6" d="M620.25,411.829,580.891,558.713l14.406,140.8,31.9.88-6.946-127.134,39.795-63.445,8.631,191.444,28.936-2.046,16.1-164.6a186.924,186.924,0,0,0,11.953-40.023,178.22,178.22,0,0,0,2.828-32.7,152.936,152.936,0,0,0-1.7-22.049,80.695,80.695,0,0,0-1.59-8.084l-11.735-11.9Z" transform="translate(-320.413 -158.75)" fill="#2f2e41"/>
    <path id="Path_41" data-name="Path 41" d="M672.4,436.4c-6.619,0-12.83-.212-18.462-.632a138.628,138.628,0,0,1-17.134-2.256,61.015,61.015,0,0,1-13.975-4.4,22.425,22.425,0,0,1-9.065-7.154l-.268-.39,10.758-70.013,11.6-78.722a21.455,21.455,0,0,1,21.89-18.333l36.333,1.113a20.364,20.364,0,0,1,19.7,21.592l-4.769,78.29L726.6,432.715l-1.246.174c-.5.066-2.432.321-5.457.662-3.953.444-7.99.845-12,1.19-5.67.489-11.218.873-16.491,1.143C684.725,436.225,678.316,436.39,672.4,436.4Z" transform="translate(-320.413 -158.75)" fill="#ccc"/>
    <path id="Path_9" data-name="Path 9" d="M652.236,240.585h-.029a5.8,5.8,0,0,1-5.8-5.808V202.384a43.288,43.288,0,0,1,3.415-16.895,43.988,43.988,0,0,1,23.112-23.232A43.315,43.315,0,0,1,733.322,202v32.442a5.814,5.814,0,0,1-.46,2.273,5.909,5.909,0,0,1-3.113,3.12,5.833,5.833,0,0,1-2.274.468l-75.244.285Z" transform="translate(-320.413 -158.75)" fill="#2f2e41"/>
    <path id="Ellipse_1" data-name="Ellipse 1" d="M709.487,191.275a31.931,31.931,0,0,1-36.923,46,31.559,31.559,0,0,1-18.983-15.208,31.931,31.931,0,0,1,36.9-45.983,31.559,31.559,0,0,1,19.008,15.2Z" transform="translate(-320.413 -158.75)" fill="#9e616a"/>
    <path id="Path_10" data-name="Path 10" d="M636.133,205.02a34.242,34.242,0,0,1,2.7-13.362,34.774,34.774,0,0,1,18.277-18.369,34.26,34.26,0,0,1,13.362-2.769l6.483-.033h.218A34.187,34.187,0,0,1,711.34,204.7v.649l-13.716.055-4.677-13.065-.935,13.091-7.084.031-2.358-6.592-.473,6.6-45.958.206Z" transform="translate(-320.413 -158.75)" fill="#2f2e41"/>
    <path id="Path_11" data-name="Path 11" d="M580.916,273.165A15.046,15.046,0,0,0,575.131,276a14.648,14.648,0,0,0-3.36,3.767,15.288,15.288,0,0,0-2.21,9.537,14.635,14.635,0,0,0,1.351,4.857,14.889,14.889,0,0,0,21.381,6.271q.2-.127.391-.258t.38-.268q.188-.137.369-.278t.36-.286l75.683,26.936a11.406,11.406,0,0,0,13.081-4.086L700.5,297.349l-21.693-14.608-11.384,12.932L598.16,281.9q-.113-.269-.235-.536t-.253-.531q-.134-.263-.277-.524t-.3-.517a14.877,14.877,0,0,0-16.178-6.622Z" transform="translate(-320.413 -158.75)" fill="#9e616a"/>
    <path id="Path_12" data-name="Path 12" d="M668.644,287.518c2.264-2.825,5.429-6.494,8.645-10.132s6.48-7.245,8.942-9.943,4.119-4.486,4.119-4.486a17.834,17.834,0,0,1,32.4,13.156,17.576,17.576,0,0,1-2.66,6.519s-2.469,3.231-6.2,8.054-8.714,11.243-13.744,17.625-10.109,12.732-14.025,17.419-6.672,7.715-7.06,7.455L665.4,292.58C665.015,292.32,666.38,290.343,668.644,287.518Z" transform="translate(-320.413 -158.75)" fill="#ccc"/>
    <path id="Path_13" data-name="Path 13" d="M676.752,239.564a5.711,5.711,0,0,0,.241,3.136,5.84,5.84,0,0,0,.766,1.438,5.909,5.909,0,0,0,.949,1.02,5.8,5.8,0,0,0,3.765,1.369q.129,0,.258-.007t.258-.018q.13-.011.259-.029t.259-.041l4.868-.885,6.7-14.325v13.121l22.132-3.984v-55.68l-37.1.178.917,1.065A25.52,25.52,0,0,1,686.8,198.48a41.6,41.6,0,0,1-.267,14.15,75.016,75.016,0,0,1-3.951,13.819,110.569,110.569,0,0,1-5.277,11.584,5.834,5.834,0,0,0-.555,1.531Z" transform="translate(-320.413 -158.75)" fill="#2f2e41"/>
    <path id="Path_42" data-name="Path 42" d="M419.755,741.25H878.383a1.2,1.2,0,1,0,0-2.407H419.755a1.2,1.2,0,0,0,0,2.408Z" transform="translate(-320.413 -158.75)" fill="#cacaca"/>
  </g>
</svg>
