<svg xmlns="http://www.w3.org/2000/svg" width="846.952" height="565" viewBox="0 0 846.952 565">
  <g id="undraw_Booking" transform="translate(0)">
    <path id="Path_2" data-name="Path 2" d="M1005.07,512.12a1.361,1.361,0,0,1-.3.04q-25.695,1.125-51.32,3.34h-.03c-.07.01-.13.01-.2.02q-26.309,2.28-52.509,5.71c-.74.1-1.47.2-2.2.29q-18.119,2.415-36.17,5.36-7.965,1.3-15.9,2.72c-.67.12-1.33.23-2,.36v-3.03c.67-.13,1.34-.24,2-.36q26.43-4.68,53.04-8.17,6.69-.9,13.4-1.7,19.38-2.34,38.82-4.04l2.84-.24q24.885-2.115,49.84-3.21a.94.94,0,0,1,.24.02C1006.22,509.37,1006.56,511.77,1005.07,512.12Z" transform="translate(-173.441 -167.5)" fill="#fff"/>
    <path id="Path_3" data-name="Path 3" d="M969.5,559.363c-21.34.157-42.364-8.892-57.458-23.869a77.822,77.822,0,0,1-11.184-14.07c-1.017-1.632-3.4.168-2.389,1.785,11.723,18.8,31.25,32.193,52.778,37.117a80.813,80.813,0,0,0,18.636,1.994c1.914-.014,1.517-2.972-.383-2.958Z" transform="translate(-173.441 -167.5)" fill="#fff"/>
    <path id="Path_4" data-name="Path 4" d="M879.3,480.95a1.692,1.692,0,0,1-1.25,1.13,65.22,65.22,0,0,0-14.08,5.5,68.406,68.406,0,0,0-17.53,13.25c-.27.27-.53.54-.78.82-.42.44-.82.89-1.22,1.35v-4.36c.64-.68,1.31-1.35,2-1.99a71.911,71.911,0,0,1,13.27-10.04Q869.371,483.31,879.3,480.95Z" transform="translate(-173.441 -167.5)" fill="#fff"/>
    <path id="Path_5" data-name="Path 5" d="M984.1,482.872a69.4,69.4,0,0,0-32.422,28.586,1.5,1.5,0,0,0,.793,1.954,1.528,1.528,0,0,0,1.954-.793,66.049,66.049,0,0,1,30.8-26.984c1.765-.754.648-3.519-1.121-2.763Z" transform="translate(-173.441 -167.5)" fill="#fff"/>
    <path id="Path_7" data-name="Path 7" d="M1019.96,362.77v.01a1.459,1.459,0,0,1-.24.17q-22.2,12.915-43.84,26.77c-.02.01-.03.02-.05.03a1.74,1.74,0,0,1-.18.11q-22.245,14.25-43.86,29.46c-.6.42-1.21.85-1.82,1.28q-14.925,10.545-29.54,21.54-27.6,20.79-53.99,43.12c-.67.56-1.33,1.13-2,1.7v-3.89c.66-.57,1.33-1.14,2-1.7q10.11-8.535,20.4-16.83c2.05-1.65,4.11-3.3,6.17-4.93q27.45-21.855,56.13-42.08h.01q5.64-3.975,11.3-7.88,16.08-11.07,32.521-21.61c.79-.51,1.59-1.02,2.39-1.53q21.045-13.44,42.64-26a1.486,1.486,0,0,1,.22-.11C1019.72,359.8,1021.13,361.78,1019.96,362.77Z" transform="translate(-173.441 -167.5)" fill="#fff"/>
    <path id="Path_8" data-name="Path 8" d="M1010.41,421.133c-18.825,10.052-41.646,11.8-61.97,5.553A77.827,77.827,0,0,1,932,419.421c-1.659-.972-2.931,1.727-1.286,2.691,19.114,11.2,42.628,13.993,63.98,8.353a80.811,80.811,0,0,0,17.43-6.891c1.688-.9-.037-3.336-1.713-2.441Z" transform="translate(-173.441 -167.5)" fill="#fff"/>
    <path id="Path_9" data-name="Path 9" d="M869.563,457.722a68.551,68.551,0,0,1-.952-15.869A72.318,72.318,0,0,1,879.391,407.7q7.028-7.407,14.723-14.112a1.7,1.7,0,0,1-.586,1.585,65.45,65.45,0,0,0-9.911,11.408,69.121,69.121,0,0,0-11.082,50.892,1.213,1.213,0,0,1-.314,1.143,1.624,1.624,0,0,1-2.658-.9Z" transform="translate(-173.441 -167.5)" fill="#fff"/>
    <path id="Path_10" data-name="Path 10" d="M987.809,346.612a69.4,69.4,0,0,0-15.433,40.375,1.5,1.5,0,0,0,1.609,1.362,1.528,1.528,0,0,0,1.362-1.609,66.048,66.048,0,0,1,14.737-38.2c1.213-1.488-1.061-3.417-2.276-1.926Z" transform="translate(-173.441 -167.5)" fill="#fff"/>
    <path id="Path_12" data-name="Path 12" d="M858.432,325.63a1.076,1.076,0,0,1-.11.28q-6.075,11.805-11.88,23.73c-.67,1.37-1.34,2.75-2,4.12v-6.8q.99-2.04,2-4.08,4.485-9.09,9.12-18.1a1.307,1.307,0,0,1,.12-.2C856.6,323.26,858.881,324.16,858.432,325.63Z" transform="translate(-173.441 -167.5)" fill="#fff"/>
    <path id="Path_14" data-name="Path 14" d="M846.441,200.5v76h-2v-.81h-669v.81h-2v-76a33.032,33.032,0,0,1,33-33h607A33.032,33.032,0,0,1,846.441,200.5Z" transform="translate(-173.441 -167.5)" fill="#54759a"/>
    <path id="Path_15" data-name="Path 15" d="M813.441,167.5h-607a33.032,33.032,0,0,0-33,33v434a33.032,33.032,0,0,0,33,33h607a33.032,33.032,0,0,0,33-33v-434A33.032,33.032,0,0,0,813.441,167.5Zm31,467a31.04,31.04,0,0,1-31,31h-607a31.04,31.04,0,0,1-31-31v-434a31.04,31.04,0,0,1,31-31h607a31.04,31.04,0,0,1,31,31Z" transform="translate(-173.441 -167.5)" fill="#3f3d56"/>
    <circle id="Ellipse_1" data-name="Ellipse 1" cx="20" cy="20" r="20" transform="translate(116 34.5)" fill="#fff"/>
    <circle id="Ellipse_2" data-name="Ellipse 2" cx="20" cy="20" r="20" transform="translate(517 34.5)" fill="#fff"/>
    <path id="Path_16" data-name="Path 16" d="M367.226,445H248.25a19.033,19.033,0,0,1-19.011-19.011V369.758a19.033,19.033,0,0,1,19.011-19.011H367.226a19.033,19.033,0,0,1,19.011,19.011v56.233A19.033,19.033,0,0,1,367.226,445Z" transform="translate(-173.441 -167.5)" fill="#54759a"/>
    <path id="Path_17" data-name="Path 17" d="M569.624,445H450.648a19.033,19.033,0,0,1-19.011-19.011V369.758a19.033,19.033,0,0,1,19.011-19.011H569.624a19.033,19.033,0,0,1,19.011,19.011v56.233A19.033,19.033,0,0,1,569.624,445Z" transform="translate(-173.441 -167.5)" fill="#54759a"/>
    <path id="Path_18" data-name="Path 18" d="M569.624,590.293H450.648a19.61,19.61,0,0,1-19.588-19.588V514.473a19.61,19.61,0,0,1,19.587-19.588H569.624a19.61,19.61,0,0,1,19.588,19.588v56.233a19.61,19.61,0,0,1-19.588,19.587Z" transform="translate(-173.441 -167.5)" fill="#f2f2f2"/>
    <path id="Path_19" data-name="Path 19" d="M366.836,590.293H247.86a19.61,19.61,0,0,1-19.588-19.587V514.473a19.61,19.61,0,0,1,19.588-19.588H366.836a19.61,19.61,0,0,1,19.588,19.588v56.233a19.609,19.609,0,0,1-19.587,19.587Z" transform="translate(-173.441 -167.5)" fill="#f2f2f2"/>
    <path id="Path_20" data-name="Path 20" d="M772.023,590.293H653.047a19.61,19.61,0,0,1-19.587-19.588V514.473a19.61,19.61,0,0,1,19.588-19.588H772.023a19.61,19.61,0,0,1,19.588,19.588v56.233A19.609,19.609,0,0,1,772.023,590.293Z" transform="translate(-173.441 -167.5)" fill="#f2f2f2"/>
    <path id="Path_21" data-name="Path 21" d="M772.023,445.115H653.047a19.61,19.61,0,0,1-19.587-19.587V369.294a19.61,19.61,0,0,1,19.588-19.587H772.023a19.61,19.61,0,0,1,19.588,19.588v56.233A19.609,19.609,0,0,1,772.023,445.115Z" transform="translate(-173.441 -167.5)" fill="#f2f2f2"/>
    <circle id="Ellipse_3" data-name="Ellipse 3" cx="32.262" cy="32.262" r="32.262" transform="translate(102.035 198.112)" fill="#fff"/>
    <path id="Path_22" data-name="Path 22" d="M304.54,410.181a3.346,3.346,0,0,1-2.013-.669l-.036-.027-7.582-5.8a3.368,3.368,0,0,1,4.1-5.348l4.911,3.766,11.605-15.135a3.368,3.368,0,0,1,4.723-.623l-.072.1.074-.1a3.372,3.372,0,0,1,.623,4.723l-13.651,17.8a3.37,3.37,0,0,1-2.68,1.315Z" transform="translate(-173.441 -167.5)" fill="#54759a"/>
    <circle id="Ellipse_4" data-name="Ellipse 4" cx="32.262" cy="32.262" r="32.262" transform="translate(305.009 197.649)" fill="#fff"/>
    <path id="Path_23" data-name="Path 23" d="M507.515,409.718a3.346,3.346,0,0,1-2.013-.669l-.036-.027-7.582-5.8a3.368,3.368,0,1,1,4.1-5.348l4.911,3.766L518.5,386.5a3.368,3.368,0,0,1,4.723-.623l-.072.1.074-.1a3.372,3.372,0,0,1,.623,4.723l-13.651,17.8a3.37,3.37,0,0,1-2.68,1.315Z" transform="translate(-173.441 -167.5)" fill="#54759a"/>
    <path id="Path_24" data-name="Path 24" d="M728.754,549.65a10.743,10.743,0,0,0-2.183-16.327L708.56,437.15l-21.9,8.123,24.592,91.98a10.8,10.8,0,0,0,17.506,12.4Z" transform="translate(-173.441 -167.5)" fill="#a0616a"/>
    <path id="Path_25" data-name="Path 25" d="M553.969,402.9a11.414,11.414,0,0,1,.022,1.8l42.59,32.78,12.078-4.96,9.867,17.249L598,460.623A8.669,8.669,0,0,1,587.721,459L545.15,415.106a11.376,11.376,0,1,1,8.819-12.206Z" transform="translate(-173.441 -167.5)" fill="#a0616a"/>
    <path id="Path_26" data-name="Path 26" d="M480.028,552.849H467.769l-5.833-37.288h18.1Z" fill="#a0616a"/>
    <path id="Path_27" data-name="Path 27" d="M656.6,732.233H617.065v-.5a15.386,15.386,0,0,1,15.386-15.386H656.6Z" transform="translate(-173.441 -167.5)" fill="#2f2e41"/>
    <path id="Path_28" data-name="Path 28" d="M526.028,552.849H513.769l-5.833-37.288h18.1Z" fill="#a0616a"/>
    <path id="Path_29" data-name="Path 29" d="M702.6,732.233H663.065v-.5a15.386,15.386,0,0,1,15.386-15.386H702.6Z" transform="translate(-173.441 -167.5)" fill="#2f2e41"/>
    <path id="Path_30" data-name="Path 30" d="M638.664,712.979a4.49,4.49,0,0,1-4.475-4.072L623.506,565.218l.5-.041,73.521-6.043.02.522L703.4,708.507a4.5,4.5,0,0,1-4.5,4.668H684.483a4.475,4.475,0,0,1-4.447-3.815L660.46,589.114a.5.5,0,0,0-.994.072l-.888,118.724a4.5,4.5,0,0,1-4.263,4.462l-15.409.6C638.825,712.977,638.744,712.979,638.664,712.979Z" transform="translate(-173.441 -167.5)" fill="#2f2e41"/>
    <circle id="Ellipse_5" data-name="Ellipse 5" cx="24.561" cy="24.561" r="24.561" transform="translate(453.211 167.003)" fill="#a0616a"/>
    <path id="Path_31" data-name="Path 31" d="M655.968,574.382A121.036,121.036,0,0,1,624.2,570.04a4.511,4.511,0,0,1-3.236-4.687c3.306-49.693,4.084-88.257-2.869-114.939-2.963-11.372-1.618-23.349,3.691-32.86,7.99-14.313,22.675-23.024,38.34-22.724h0q1.123.021,2.268.08c23.773,1.224,42.3,22.73,41.294,47.942l-4.782,120.168a4.44,4.44,0,0,1-2.815,4.044,114.243,114.243,0,0,1-40.123,7.317Z" transform="translate(-173.441 -167.5)" fill="#3f3d56"/>
    <path id="Path_32" data-name="Path 32" d="M622.136,459.641l-18.4-22.544a5.762,5.762,0,0,1,1.514-8.592l24.922-14.85a16,16,0,1,1,20.16,24.853L630.857,459.88a5.761,5.761,0,0,1-8.721-.239Z" transform="translate(-173.441 -167.5)" fill="#3f3d56"/>
    <path id="Path_33" data-name="Path 33" d="M680.011,456.812a5.755,5.755,0,0,1-3.164-3.606L668.565,425.5a16,16,0,0,1,28.944-13.652l16.016,24.188a5.762,5.762,0,0,1-2.361,8.4l-26.354,12.336a5.755,5.755,0,0,1-4.8.04Z" transform="translate(-173.441 -167.5)" fill="#3f3d56"/>
    <path id="Path_34" data-name="Path 34" d="M663.35,379.217l-18.206-4.167c-1.878-.43-4.134-1.25-4.395-3.159-.35-2.565,3.341-4.352,3-6.919-.33-2.486-3.693-2.806-6.09-3.54a9.111,9.111,0,0,1-5.672-11.34c-2.594,3.656-8.522,3.969-11.887,1.007s-4.01-8.336-1.99-12.338a14.287,14.287,0,0,1,10.724-7.241,22.616,22.616,0,0,1,13.023,2.428c.267-2.833,3.8-3.982,6.65-4.007a28.431,28.431,0,0,1,26.643,19.446c3.492,11.252,1.156,23.586-8.614,30.17Z" transform="translate(-173.441 -167.5)" fill="#2f2e41"/>
    <path id="Path_35" data-name="Path 35" d="M846.729,732.5h-381a1,1,0,0,1,0-2h381a1,1,0,0,1,0,2Z" transform="translate(-173.441 -167.5)" fill="#3f3d56"/>
  </g>
</svg>
